<svg xmlns="http://www.w3.org/2000/svg" fill="none" viewBox="0 0 48 48" id="Bowl-Chop-Stick--Streamline-Plump"><desc>Bowl Chop Stick Streamline Icon: https://streamlinehq.com</desc><g id="bowl-chop-stick--cook-soup-bowl-chopsticks-cooking-nutrition-asian-food-kitchenware"><path id="Vector 177 (Stroke)" fill="#ffffff" fill-rule="evenodd" d="M12.72 19.2613C11.9988 18.5401 12.2677 17.3916 12.8993 16.5902C14.8711 14.089 19.4796 8.3684 24.1923 3.4149C25.3158 2.2342 26.9927 1.5286 28.3006 2.501C28.7494 2.8344 29.1469 3.2319 29.4803 3.6807C30.4516 4.9897 29.7471 6.6666 28.5663 7.79C23.6129 12.5028 17.8923 17.1113 15.3911 19.0831C14.5897 19.7146 13.4422 19.9835 12.72 19.2613Z" clip-rule="evenodd" stroke-width="3"></path><path id="Vector 177 (Stroke)_2" fill="#ffffff" fill-rule="evenodd" d="M24.9667 19.8387C24.456 18.9549 25.0125 17.9148 25.8306 17.3051C28.3829 15.3979 34.314 11.0666 40.1491 7.5003C41.5394 6.6509 43.3413 6.405 44.3533 7.6816C44.5148 7.8849 44.6722 8.1152 44.8223 8.3747C44.9723 8.6342 45.0922 8.8853 45.187 9.1271C45.7873 10.6425 44.6732 12.0796 43.2413 12.8581C37.2373 16.1295 30.5194 19.1008 27.593 20.3577C26.655 20.7599 25.4773 20.7224 24.9667 19.8386Z" clip-rule="evenodd" stroke-width="3"></path><path id="Ellipse 20" fill="#8fbffa" d="M2.6734 28.3387C4.0699 38.1133 12.7825 45.9567 23.3211 45.9567C33.8596 45.9567 42.5722 38.1133 43.9687 28.3387C44.1918 26.7775 42.9922 25.4789 41.4164 25.4039C38.59 25.2705 33.1655 25.1131 23.3211 25.1131C13.4777 25.1131 8.0531 25.2705 5.2257 25.4049C3.651 25.4779 2.4504 26.7775 2.6724 28.3387Z" stroke-width="3"></path><path id="Ellipse 18" stroke="#2859c5" stroke-linecap="round" stroke-linejoin="round" d="M2.6734 28.3387C4.0699 38.1133 12.7825 45.9567 23.3211 45.9567C33.8596 45.9567 42.5722 38.1133 43.9687 28.3387C44.1918 26.7775 42.9922 25.4789 41.4164 25.4039C38.59 25.2705 33.1655 25.1131 23.3211 25.1131C13.4777 25.1131 8.0531 25.2705 5.2257 25.4049C3.651 25.4779 2.4504 26.7775 2.6724 28.3387Z" stroke-width="3"></path><path id="Ellipse 19" stroke="#2859c5" stroke-linecap="round" stroke-linejoin="round" d="M38.0377 30.324C36.7592 33.8353 34.2882 36.7861 31.0561 38.6615" stroke-width="3"></path><path id="Vector 177 (Stroke)_3" fill-rule="evenodd" stroke="#2859c5" stroke-linecap="round" stroke-linejoin="round" d="M12.72 19.2613C11.9988 18.5401 12.2677 17.3916 12.8993 16.5902C14.8711 14.089 19.4796 8.3684 24.1923 3.4149C25.3158 2.2342 26.9927 1.5286 28.3006 2.501C28.7494 2.8344 29.1469 3.2319 29.4803 3.6807C30.4516 4.9897 29.7471 6.6666 28.5663 7.79C23.6129 12.5028 17.8923 17.1113 15.3911 19.0831C14.5897 19.7146 13.4422 19.9835 12.72 19.2613Z" clip-rule="evenodd" stroke-width="3"></path><path id="Vector 177 (Stroke)_4" fill-rule="evenodd" stroke="#2859c5" stroke-linecap="round" stroke-linejoin="round" d="M24.9677 19.8387C24.457 18.9549 25.0136 17.9148 25.8317 17.3051C28.384 15.3979 34.315 11.0666 40.1502 7.5003C41.5405 6.6509 43.3424 6.405 44.3543 7.6816C44.7014 8.1201 44.9823 8.6071 45.1881 9.1271C45.7884 10.6425 44.6743 12.0796 43.2423 12.8581C37.2373 16.1295 30.5204 19.1008 27.594 20.3577C26.656 20.7599 25.4784 20.7224 24.9677 19.8386Z" clip-rule="evenodd" stroke-width="3"></path></g></svg>